<svg id="product" xmlns="http://www.w3.org/2000/svg" viewBox="0 0 24 24"><title>disabled</title><path d="M18,17.12,16.66,16l-.66.75,2,1.78,3-3.12-.73-.69Zm4.39-.7a4,4,0,1,0-4,4A4,4,0,0,0,22.36,16.42Zm1.64,7-.8.6-2.4-3.23a4.92,4.92,0,0,1-2.47.68,5,5,0,0,1-1.86-.37l-5,2.65V12L22,6.63V13a5,5,0,0,1,1.36,3.41,5,5,0,0,1-1.74,3.78ZM21.47,5.77,11,0,6.17,2.63,16.81,8.17ZM5.11,3.21.53,5.71,11,11.16l4.72-2.42ZM0,6.56,10.5,12v11.7L0,18.13Z" transform="translate(0 0)" style="fill:#c5cee0;fill-rule:evenodd"/></svg>