<svg id="payment" xmlns="http://www.w3.org/2000/svg" viewBox="0 0 24 14"><title>default</title><path d="M12,8a4,4,0,1,0,4,4A4,4,0,0,0,12,8Zm.2,6v.42h-.4V14a2.9,2.9,0,0,1-1.2-.29l.18-.66a2.42,2.42,0,0,0,1.29.22c.46-.11.56-.58,0-.81s-1.52-.32-1.52-1.29A1.21,1.21,0,0,1,11.8,10V9.6h.4V10a3.42,3.42,0,0,1,1,.17l-.15.65a2.7,2.7,0,0,0-1-.18c-.59,0-.64.55-.23.76.69.33,1.58.57,1.58,1.42C13.4,13.52,12.86,13.89,12.2,14ZM0,5V19H24V5Zm22,9.42A5.07,5.07,0,0,0,19.42,17H4.58A5.07,5.07,0,0,0,2,14.42V9.58A5.07,5.07,0,0,0,4.58,7H19.42A5.07,5.07,0,0,0,22,9.58Z" transform="translate(0 -5)" style="fill:#8f9bb3"/></svg>