<svg id="Capa_1" data-name="Capa 1" xmlns="http://www.w3.org/2000/svg" viewBox="0 0 24 18.45"><title>white</title><path d="M19.6,2.56,16.26,5.7A13.19,13.19,0,0,0,12,5C4.45,5,0,11.55,0,11.55a20.75,20.75,0,0,0,5.15,5.14L2.23,19.6,3.65,21,21,4Zm-6,5.78a4,4,0,0,0-5.27,5.21L6.6,15.25a17.93,17.93,0,0,1-4.06-3.66C4,10,7.35,7,12,7a11.38,11.38,0,0,1,2.61.31ZM10.7,15.77l5.1-5A4,4,0,0,1,10.7,15.77ZM24,11.55S19.75,19,12,19a10.86,10.86,0,0,1-3.86-.74l1.62-1.58A8.66,8.66,0,0,0,12,17c4.79,0,8.1-3.53,9.5-5.36a15.38,15.38,0,0,0-3.59-3l1.49-1.46A16.65,16.65,0,0,1,24,11.55Z" transform="translate(0 -2.56)" fill="#fff"/></svg>