<svg id="chart" xmlns="http://www.w3.org/2000/svg" viewBox="0 0 24 24"><title>white</title><path d="M13,5V3.34L15.81.57A10.29,10.29,0,0,1,17,1ZM20.1,3.08,13,10.13V11h.88l7-7.08A10.83,10.83,0,0,0,20.1,3.08ZM13,1.61,14.45.2A13.49,13.49,0,0,0,13,0Zm10.79,8L22.41,11H24A13.12,13.12,0,0,0,23.8,9.57ZM23.44,8.2A11.32,11.32,0,0,0,23,7L19,11h1.67ZM22.37,5.87a10.93,10.93,0,0,0-.66-1L15.62,11h1.67ZM19.15,2.3c-.32-.24-.66-.46-1-.67L13,6.74V8.4ZM11,13V0A12,12,0,1,0,24,13Z" transform="translate(0 0)" style="fill:#fff"/></svg>